HIERARCHY
ROOT Root
{
  OFFSET 0.0 0.0 0.0
  CHANNELS 6 Xposition Yposition Zposition Zrotation Yrotation Xrotation
  JOINT Hips
  {
    OFFSET 0.0 100.0 0.0
    CHANNELS 6 Xposition Yposition Zposition Zrotation Yrotation Xrotation
    JOINT Spine1
    {
      OFFSET -0.013727 5.003763 -0.053727
      CHANNELS 3 Zrotation Yrotation Xrotation
      JOINT Spine2
      {
        OFFSET -0.0 7.125301 -0.029825
        CHANNELS 3 Zrotation Yrotation Xrotation
        JOINT Chest
        {
          OFFSET -1e-06 7.550063 -0.815971
          CHANNELS 3 Zrotation Yrotation Xrotation
          JOINT Neck1
          {
            OFFSET -0.181677 26.311295 -0.553348
            CHANNELS 3 Zrotation Yrotation Xrotation
            JOINT Neck2
            {
              OFFSET -3e-06 7.709397 2.302585
              CHANNELS 3 Zrotation Yrotation Xrotation
              JOINT Head
              {
                OFFSET -5e-06 6.128916 1.953709
                CHANNELS 3 Zrotation Yrotation Xrotation
                JOINT HeadEnd
                {
                  OFFSET 0.003598 16.065403 -1.835379
                  CHANNELS 3 Zrotation Yrotation Xrotation
                }
                JOINT Jaw
                {
                  OFFSET 0.002637 0.475592 3.094941
                  CHANNELS 3 Zrotation Yrotation Xrotation
                }
                JOINT LeftEye
                {
                  OFFSET 3.206381 5.380205 7.586883
                  CHANNELS 3 Zrotation Yrotation Xrotation
                }
                JOINT RightEye
                {
                  OFFSET -3.22244 5.361869 7.558234
                  CHANNELS 3 Zrotation Yrotation Xrotation
                }
              }
            }
          }
          JOINT LeftShoulder
          {
            OFFSET 1.621652 23.237164 5.113413
            CHANNELS 3 Zrotation Yrotation Xrotation
            JOINT LeftArm
            {
              OFFSET 14.919846 2e-06 -5.502326
              CHANNELS 3 Zrotation Yrotation Xrotation
              JOINT LeftForeArm
              {
                OFFSET 28.739307 0.0 -0.002588
                CHANNELS 3 Zrotation Yrotation Xrotation
                JOINT LeftHand
                {
                  OFFSET 27.093981 -1e-06 0.002609
                  CHANNELS 3 Zrotation Yrotation Xrotation
                  JOINT LeftHandThumb1
                  {
                    OFFSET 2.276482 -1.392045 3.191413
                    CHANNELS 3 Zrotation Yrotation Xrotation
                    JOINT LeftHandThumb2
                    {
                      OFFSET 4.012836 -1.828127 1.641654
                      CHANNELS 3 Zrotation Yrotation Xrotation
                      JOINT LeftHandThumb3
                      {
                        OFFSET 2.798515 0.0 -3e-06
                        CHANNELS 3 Zrotation Yrotation Xrotation
                        JOINT LeftHandThumbEnd
                        {
                          OFFSET 3.180793 -4e-06 4e-06
                          CHANNELS 3 Zrotation Yrotation Xrotation
                        }
                      }
                    }
                  }
                  JOINT LeftHandIndex1
                  {
                    OFFSET 3.247555 -0.531998 2.296169
                    CHANNELS 3 Zrotation Yrotation Xrotation
                    JOINT LeftHandIndex2
                    {
                      OFFSET 6.364578 0.01206 0.1786
                      CHANNELS 3 Zrotation Yrotation Xrotation
                      JOINT LeftHandIndex3
                      {
                        OFFSET 3.662364 0.0 0.0
                        CHANNELS 3 Zrotation Yrotation Xrotation
                        JOINT LeftHandIndex4
                        {
                          OFFSET 2.329242 4e-06 4e-06
                          CHANNELS 3 Zrotation Yrotation Xrotation
                          JOINT LeftHandIndexEnd
                          {
                            OFFSET 2.759615 -0.180537 -0.113024
                            CHANNELS 3 Zrotation Yrotation Xrotation
                          }
                        }
                      }
                    }
                  }
                  JOINT LeftHandMiddle1
                  {
                    OFFSET 3.163495 0.240981 1.000332
                    CHANNELS 3 Zrotation Yrotation Xrotation
                    JOINT LeftHandMiddle2
                    {
                      OFFSET 6.19078 -0.259278 -1.002548
                      CHANNELS 3 Zrotation Yrotation Xrotation
                      JOINT LeftHandMiddle3
                      {
                        OFFSET 4.35652 -4e-06 -1e-06
                        CHANNELS 3 Zrotation Yrotation Xrotation
                        JOINT LeftHandMiddle4
                        {
                          OFFSET 2.996877 -8e-06 0.0
                          CHANNELS 3 Zrotation Yrotation Xrotation
                          JOINT LeftHandMiddleEnd
                          {
                            OFFSET 2.304287 -0.294569 -0.031741
                            CHANNELS 3 Zrotation Yrotation Xrotation
                          }
                        }
                      }
                    }
                  }
                  JOINT LeftHandRing1
                  {
                    OFFSET 2.882643 -0.053652 -0.322543
                    CHANNELS 3 Zrotation Yrotation Xrotation
                    JOINT LeftHandRing2
                    {
                      OFFSET 5.854541 -0.486202 -1.373841
                      CHANNELS 3 Zrotation Yrotation Xrotation
                      JOINT LeftHandRing3
                      {
                        OFFSET 4.350578 0.0 3e-06
                        CHANNELS 3 Zrotation Yrotation Xrotation
                        JOINT LeftHandRing4
                        {
                          OFFSET 2.651321 7e-06 2e-06
                          CHANNELS 3 Zrotation Yrotation Xrotation
                          JOINT LeftHandRingEnd
                          {
                            OFFSET 1.936105 0.077687 -7.1e-05
                            CHANNELS 3 Zrotation Yrotation Xrotation
                          }
                        }
                      }
                    }
                  }
                  JOINT LeftHandPinky1
                  {
                    OFFSET 2.8655 -0.310005 -1.600378
                    CHANNELS 3 Zrotation Yrotation Xrotation
                    JOINT LeftHandPinky2
                    {
                      OFFSET 5.087849 -1.331141 -1.77123
                      CHANNELS 3 Zrotation Yrotation Xrotation
                      JOINT LeftHandPinky3
                      {
                        OFFSET 3.070974 4e-06 0.0
                        CHANNELS 3 Zrotation Yrotation Xrotation
                        JOINT LeftHandPinky4
                        {
                          OFFSET 1.549672 0.0 1e-06
                          CHANNELS 3 Zrotation Yrotation Xrotation
                          JOINT LeftHandPinkyEnd
                          {
                            OFFSET 1.944893 -0.157802 0.057219
                            CHANNELS 3 Zrotation Yrotation Xrotation
                          }
                        }
                      }
                    }
                  }
                }
              }
            }
          }
          JOINT RightShoulder
          {
            OFFSET -1.380118 23.180309 5.214158
            CHANNELS 3 Zrotation Yrotation Xrotation
            JOINT RightArm
            {
              OFFSET -15.037196 1.2e-05 -5.545604
              CHANNELS 3 Zrotation Yrotation Xrotation
              JOINT RightForeArm
              {
                OFFSET -28.736639 2e-06 -0.002597
                CHANNELS 3 Zrotation Yrotation Xrotation
                JOINT RightHand
                {
                  OFFSET -27.133619 -0.0 0.002613
                  CHANNELS 3 Zrotation Yrotation Xrotation
                  JOINT RightHandThumb1
                  {
                    OFFSET -2.274032 -1.383988 3.163127
                    CHANNELS 3 Zrotation Yrotation Xrotation
                    JOINT RightHandThumb2
                    {
                      OFFSET -4.011429 -1.827466 1.640914
                      CHANNELS 3 Zrotation Yrotation Xrotation
                      JOINT RightHandThumb3
                      {
                        OFFSET -2.794935 -4e-06 -3e-06
                        CHANNELS 3 Zrotation Yrotation Xrotation
                        JOINT RightHandThumbEnd
                        {
                          OFFSET -3.183852 4e-06 1e-06
                          CHANNELS 3 Zrotation Yrotation Xrotation
                        }
                      }
                    }
                  }
                  JOINT RightHandIndex1
                  {
                    OFFSET -3.253266 -0.520057 2.282866
                    CHANNELS 3 Zrotation Yrotation Xrotation
                    JOINT RightHandIndex2
                    {
                      OFFSET -6.341917 0.012471 0.178266
                      CHANNELS 3 Zrotation Yrotation Xrotation
                      JOINT RightHandIndex3
                      {
                        OFFSET -3.654871 -8e-06 -0.0
                        CHANNELS 3 Zrotation Yrotation Xrotation
                        JOINT RightHandIndex4
                        {
                          OFFSET -2.327586 0.0 1e-06
                          CHANNELS 3 Zrotation Yrotation Xrotation
                          JOINT RightHandIndexEnd
                          {
                            OFFSET -2.76179 -0.180656 -0.113078
                            CHANNELS 3 Zrotation Yrotation Xrotation
                          }
                        }
                      }
                    }
                  }
                  JOINT RightHandMiddle1
                  {
                    OFFSET -3.168106 0.246593 1.00103
                    CHANNELS 3 Zrotation Yrotation Xrotation
                    JOINT RightHandMiddle2
                    {
                      OFFSET -6.180828 -0.258836 -1.000895
                      CHANNELS 3 Zrotation Yrotation Xrotation
                      JOINT RightHandMiddle3
                      {
                        OFFSET -4.348901 0.0 -0.0
                        CHANNELS 3 Zrotation Yrotation Xrotation
                        JOINT RightHandMiddle4
                        {
                          OFFSET -3.00024 -4e-06 -2e-06
                          CHANNELS 3 Zrotation Yrotation Xrotation
                          JOINT RightHandMiddleEnd
                          {
                            OFFSET -2.30252 -0.29437 -0.031706
                            CHANNELS 3 Zrotation Yrotation Xrotation
                          }
                        }
                      }
                    }
                  }
                  JOINT RightHandRing1
                  {
                    OFFSET -2.88569 -0.067952 -0.308858
                    CHANNELS 3 Zrotation Yrotation Xrotation
                    JOINT RightHandRing2
                    {
                      OFFSET -5.854198 -0.48613 -1.373731
                      CHANNELS 3 Zrotation Yrotation Xrotation
                      JOINT RightHandRing3
                      {
                        OFFSET -4.33881 -4e-06 -0.0
                        CHANNELS 3 Zrotation Yrotation Xrotation
                        JOINT RightHandRing4
                        {
                          OFFSET -2.654903 -4e-06 4e-06
                          CHANNELS 3 Zrotation Yrotation Xrotation
                          JOINT RightHandRingEnd
                          {
                            OFFSET -1.933568 0.077527 -5.2e-05
                            CHANNELS 3 Zrotation Yrotation Xrotation
                          }
                        }
                      }
                    }
                  }
                  JOINT RightHandPinky1
                  {
                    OFFSET -2.866425 -0.342796 -1.584145
                    CHANNELS 3 Zrotation Yrotation Xrotation
                    JOINT RightHandPinky2
                    {
                      OFFSET -5.091371 -1.332055 -1.772385
                      CHANNELS 3 Zrotation Yrotation Xrotation
                      JOINT RightHandPinky3
                      {
                        OFFSET -3.062664 -4e-06 1e-06
                        CHANNELS 3 Zrotation Yrotation Xrotation
                        JOINT RightHandPinky4
                        {
                          OFFSET -1.546529 4e-06 -2e-06
                          CHANNELS 3 Zrotation Yrotation Xrotation
                          JOINT RightHandPinkyEnd
                          {
                            OFFSET -1.945119 -0.157718 0.057211
                            CHANNELS 3 Zrotation Yrotation Xrotation
                          }
                        }
                      }
                    }
                  }
                }
              }
            }
          }
        }
      }
    }
    JOINT LeftLeg
    {
      OFFSET 10.043214 -8.434526 2.595655
      CHANNELS 3 Zrotation Yrotation Xrotation
      JOINT LeftShin
      {
        OFFSET -1e-06 -43.221752 -0.802913
        CHANNELS 3 Zrotation Yrotation Xrotation
        JOINT LeftFoot
        {
          OFFSET 1e-06 -42.155094 -3.481523
          CHANNELS 3 Zrotation Yrotation Xrotation
          JOINT LeftToeBase
          {
            OFFSET 0.0 -5.059472 13.231529
            CHANNELS 3 Zrotation Yrotation Xrotation
            JOINT LeftToeEnd
            {
              OFFSET -0.009607 -1.647619 6.513017
              CHANNELS 3 Zrotation Yrotation Xrotation
            }
          }
        }
      }
    }
    JOINT RightLeg
    {
      OFFSET -10.047278 -8.29526 2.620317
      CHANNELS 3 Zrotation Yrotation Xrotation
      JOINT RightShin
      {
        OFFSET 1e-06 -43.362206 -0.805556
        CHANNELS 3 Zrotation Yrotation Xrotation
        JOINT RightFoot
        {
          OFFSET 2e-06 -42.117393 -3.478398
          CHANNELS 3 Zrotation Yrotation Xrotation
          JOINT RightToeBase
          {
            OFFSET -0.0 -5.079609 13.284196
            CHANNELS 3 Zrotation Yrotation Xrotation
            JOINT RightToeEnd
            {
              OFFSET 0.009532 -1.634378 6.460591
              CHANNELS 3 Zrotation Yrotation Xrotation
            }
          }
        }
      }
    }
  }
}
MOTION
Frames: 4
Frame Time: 0.03333333333333333
0.0 0.0 0.0 0.0 -0.0 0.0 2.603976 99.56649 3.036331 -1.451188 0.178153 3.803039 0.61843 -0.216588 -5.414017 -0.1004 -0.954419 -6.840974 2.802035 -2.460241 11.3003 -3.749208 3.016364 -8.016725 -0.306021 1.116341 -3.569489 -0.855174 -0.049715 -4.547425 7.7e-05 -2.2e-05 6e-06 0.034877 -0.005317 -0.021263 0.761977 -3.727144 -10.531544 -0.698045 3.723211 -10.571913 -21.783043 -2.395693 15.71743 -48.208599 -6.465189 36.542458 0.352639 -34.019878 -0.064909 4.059331 6.446721 -11.355691 -5.88211 9.861288 0.702591 -10.936877 -0.360576 7.156204 1e-06 8.774828 -3e-06 -16.29912 18.094496 6.078287 -1.844033 2.498505 -2.507277 -10.163604 4.678946 4.621108 -20.976038 -6e-06 0.0 -21.226295 2.451695 -3.594 1e-06 -4e-06 0.0 -1.362681 2.240798 -0.746323 -21.334925 0.584908 3.008321 -13.821221 -5e-06 0.0 -23.887182 -0.249084 -0.839482 -60.866058 2.609122 -1.493285 -0.294025 1.679688 0.833255 -14.218215 0.093214 1.300578 -34.212067 -0.287569 0.967171 -20.033226 0.964532 1.212844 0.0 -1e-06 1e-06 -3.44039 0.788233 0.501654 -15.928192 -3.167312 2.999705 -6.338829 -2e-06 -1e-06 -18.123457 3.64818 -4.905674 -4e-06 0.0 -0.0 19.490597 7.412477 17.093569 51.714222 6.340018 25.519386 0.703974 29.08312 0.214938 -8.206597 -0.785745 -8.363108 2.243541 -5.255037 -3.180156 14.282892 -0.826595 6.952504 -4e-06 -12.690607 3e-06 16.044081 -17.557144 2.561176 1.665666 -1.955921 -2.878299 4.727799 -4.170588 4.993925 11.020528 3e-06 -1e-06 12.109055 -3.735716 -2.866783 -1e-06 0.0 -0.0 1.291986 -1.928549 -1.498091 14.800132 0.567468 3.865609 14.242576 -1.341736 -6.660657 19.631969 0.143926 -0.648243 49.328056 -0.603646 -6.445998 0.353029 -1.51115 -0.031941 20.222794 3.684311 2.31663 18.787273 3e-06 0.0 10.751631 -0.479868 1.397906 -0.0 0.0 -1e-06 3.273808 0.305947 -0.580112 21.486816 11.830378 2.266131 8.162928 2e-06 -1e-06 18.399084 -3.798985 -4.940577 5e-06 -1e-06 -1e-06 9.289615 15.542427 -1.903682 -0.014725 -0.045308 7.141294 -10.531337 5.424605 -7.229734 1.610323 -1.890876 -0.208383 0.0 -0.0 2e-06 -4.24583 -1.927638 0.078128 -0.013506 0.024998 2.060026 9.268844 -8.011648 -6.403712 -1.393066 1.093462 -0.477112 0.0 0.0 -1e-06 
0.0 0.0 0.0 0.0 -0.0 0.0 2.254259 99.516357 3.14477 -1.660299 0.836243 3.82438 0.729753 -0.219776 -5.426553 -0.099981 -0.939782 -6.849338 2.76848 -2.558277 11.250414 -3.724804 3.094701 -8.040562 -0.333409 0.927602 -3.556061 -0.78713 -0.168344 -4.746305 7.7e-05 -2.3e-05 6e-06 0.031487 0.00012 -0.018628 0.748895 -3.723616 -10.517971 -0.691337 3.72872 -10.553186 -22.120962 -2.363872 15.7072 -47.728493 -6.600005 36.019363 0.163517 -33.785683 -0.076278 4.522374 6.229695 -10.909211 -5.882102 9.861281 0.702591 -10.936866 -0.360575 7.156202 1e-06 8.774821 -1e-06 -16.257246 18.013935 6.068378 -1.844032 2.498503 -2.507276 -10.163595 4.678942 4.621109 -20.976017 -6e-06 4e-06 -21.226276 2.451694 -3.593996 1e-06 -4e-06 0.0 -1.362681 2.240797 -0.746323 -21.334906 0.584907 3.008322 -13.821208 -4e-06 2e-06 -23.887161 -0.249081 -0.839478 -60.783432 2.590054 -1.428054 -0.294025 1.679686 0.833257 -14.218204 0.093214 1.300581 -34.21204 -0.287565 0.967172 -20.033209 0.964535 1.212845 0.0 -0.0 1e-06 -3.440387 0.788232 0.501654 -15.928181 -3.16731 2.999706 -6.338824 -2e-06 2e-06 -18.12344 3.648181 -4.905665 -3e-06 0.0 1e-06 19.746759 7.405195 17.19253 51.834866 6.842572 25.408445 0.683361 28.511488 0.194526 -7.946108 -0.741753 -8.668801 2.243541 -5.255036 -3.180157 14.282887 -0.826593 6.952499 -4e-06 -12.690601 -0.0 16.105515 -17.607738 2.525832 1.665667 -1.955922 -2.878296 4.727798 -4.170587 4.993922 11.020526 4e-06 -1e-06 12.109053 -3.735713 -2.866784 -1e-06 -0.0 -0.0 1.291986 -1.92855 -1.498088 14.800127 0.56747 3.865607 14.242571 -1.341734 -6.660657 19.631968 0.143928 -0.648244 49.560398 -0.574223 -6.465195 0.353029 -1.511149 -0.03194 20.222792 3.684312 2.316628 18.78727 8e-06 -3e-06 10.751627 -0.479866 1.397905 -1e-06 0.0 0.0 3.273807 0.305946 -0.580111 21.486813 11.830377 2.266132 8.162926 3e-06 -2e-06 18.39908 -3.798982 -4.940574 5e-06 0.0 -1e-06 9.813077 15.231411 -2.389078 -0.03742 -0.080481 7.901101 -11.04084 4.961327 -7.437695 1.608586 -1.894713 -0.336821 0.0 -0.0 2e-06 -3.597902 -1.904787 0.209688 -0.016616 0.033435 2.225548 8.756435 -8.550882 -6.844519 -1.400642 1.111696 -0.555246 0.0 0.0 -1e-06 
0.0 0.0 0.0 0.0 -0.0 0.0 1.393648 99.426773 3.273561 -1.862523 1.777483 3.844995 0.835612 -0.236908 -5.45401 -0.110263 -0.922155 -6.874522 2.692316 -2.619884 11.273041 -3.661012 3.077127 -8.178496 -0.390937 0.693163 -3.597364 -0.717261 -0.465764 -4.815034 7.7e-05 -2.3e-05 6e-06 0.029185 -0.008109 -0.010447 0.738333 -3.728871 -10.506629 -0.684983 3.716673 -10.536312 -22.457617 -2.36172 15.690269 -47.073948 -6.756548 35.685455 0.106841 -33.644493 -0.128431 5.193629 6.14116 -10.626408 -5.882113 9.861294 0.702592 -10.936883 -0.360573 7.156209 -0.0 8.774831 -1e-06 -16.215143 18.013561 6.044312 -1.844035 2.498507 -2.507277 -10.163611 4.67895 4.621113 -20.976044 -1e-06 1e-06 -21.226311 2.4517 -3.594005 0.0 -4e-06 -1e-06 -1.362684 2.2408 -0.746322 -21.33494 0.584913 3.008326 -13.821229 -1e-06 -0.0 -23.887201 -0.249078 -0.839484 -60.643188 2.612375 -1.458378 -0.294025 1.679689 0.833257 -14.218224 0.093216 1.30058 -34.212086 -0.28756 0.967168 -20.033236 0.96454 1.212844 0.0 0.0 -1e-06 -3.440392 0.788236 0.501654 -15.928205 -3.16731 2.999709 -6.338833 -0.0 -0.0 -18.123466 3.648187 -4.905676 -5e-06 1e-06 1e-06 19.99135 7.42426 17.278177 52.018169 7.405032 25.604954 0.637156 27.877611 0.129071 -7.728854 -0.826481 -9.034123 2.243544 -5.255038 -3.18016 14.282896 -0.826599 6.952505 0.0 -12.690609 1e-06 16.114555 -17.60549 2.511794 1.665666 -1.955922 -2.878299 4.727801 -4.170589 4.993926 11.020529 -0.0 -2e-06 12.109057 -3.735718 -2.866784 -0.0 -0.0 -0.0 1.291986 -1.92855 -1.49809 14.800132 0.567465 3.865608 14.242577 -1.341739 -6.660662 19.631973 0.143923 -0.648247 49.64436 -0.568186 -6.474892 0.353029 -1.51115 -0.03194 20.222795 3.684306 2.31663 18.787279 0.0 -1e-06 10.75163 -0.47987 1.397905 0.0 1e-06 -0.0 3.273808 0.305947 -0.58011 21.486816 11.830373 2.266133 8.16293 0.0 1e-06 18.399092 -3.798991 -4.940575 5e-06 0.0 -1e-06 10.644179 14.83781 -2.773921 -0.046183 -0.124462 8.251189 -11.780614 4.308541 -7.322197 1.607026 -1.889564 -0.452087 -0.0 -0.0 2e-06 -2.736063 -2.026058 -0.110707 -0.015413 0.030748 3.499921 8.212325 -9.179573 -7.933794 -1.404323 1.147558 -0.54954 -0.0 0.0 -1e-06 
0.0 0.0 0.0 0.0 -0.0 0.0 0.446752 99.315521 3.389608 -2.087298 2.830714 3.845345 0.94837 -0.25318 -5.461644 -0.113 -0.859628 -6.898635 2.577935 -2.615173 11.277366 -3.587897 3.01139 -8.365541 -0.471945 0.505051 -3.64738 -0.552567 -0.823815 -4.984214 7.7e-05 -2.2e-05 6e-06 0.026817 -0.017431 -0.006291 0.730941 -3.737871 -10.510163 -0.681827 3.706353 -10.533472 -22.576723 -2.306685 15.670833 -46.549801 -6.988254 35.502998 0.153321 -33.468697 -0.217215 6.034977 6.09815 -10.493109 -5.882108 9.861288 0.702591 -10.936873 -0.360574 7.156204 -1e-06 8.774826 -2e-06 -16.142756 18.007021 6.024893 -1.844033 2.498506 -2.507276 -10.163603 4.678947 4.621105 -20.976027 0.0 1e-06 -21.226292 2.4517 -3.594004 -0.0 -5e-06 0.0 -1.362682 2.240798 -0.746323 -21.334915 0.584913 3.008325 -13.821215 -1e-06 1e-06 -23.887175 -0.249078 -0.839485 -60.514439 2.620091 -1.476348 -0.294025 1.679687 0.833256 -14.21821 0.093216 1.30058 -34.212059 -0.28756 0.967172 -20.033218 0.964537 1.212841 0.0 -0.0 -1e-06 -3.440389 0.788234 0.501655 -15.928189 -3.167308 2.999706 -6.338828 -1e-06 1e-06 -18.123453 3.648185 -4.905674 -4e-06 0.0 -0.0 20.069094 7.515336 17.359093 52.401695 7.986537 26.278706 0.553145 27.20792 0.040286 -7.43534 -1.059841 -9.323766 2.243542 -5.25504 -3.180158 14.282896 -0.826597 6.952506 0.0 -12.69061 -0.0 16.094959 -17.581013 2.516074 1.665667 -1.955923 -2.878299 4.727801 -4.170592 4.993925 11.020531 1e-06 -1e-06 12.109056 -3.73572 -2.866785 -0.0 0.0 -1e-06 1.291986 -1.92855 -1.49809 14.800136 0.567467 3.865607 14.242579 -1.341741 -6.660659 19.631975 0.143923 -0.648246 49.682911 -0.590872 -6.467194 0.353029 -1.511152 -0.031941 20.222801 3.684309 2.316631 18.787283 2e-06 -0.0 10.751635 -0.479868 1.397907 -0.0 1e-06 -0.0 3.273808 0.305946 -0.58011 21.486824 11.830381 2.266136 8.16293 2e-06 -1e-06 18.399094 -3.798988 -4.94058 6e-06 -0.0 -1e-06 11.555285 14.397955 -3.261068 -0.048477 -0.17205 8.701837 -12.5151 3.674013 -7.183462 1.60146 -1.883942 -0.612158 0.0 -0.0 2e-06 -1.747846 -2.266493 -0.708099 -0.02068 0.023661 5.303946 7.70868 -9.779839 -9.187306 -1.403276 1.172522 -0.561861 -0.0 0.0 -1e-06 
